<svg width="256" height="36" viewBox="0 0 256 36" fill="none" xmlns="http://www.w3.org/2000/svg">
<path d="M30.3701 2H1.63186C0.730608 2 0 2.73056 0 3.63176V17.3149C0 18.2161 0.730608 18.9467 1.63186 18.9467H7.52812V32.3682C7.52759 32.8008 7.69907 33.2159 8.00479 33.522C8.3105 33.828 8.72537 34 9.15798 34H22.842C23.7433 34 24.4739 33.2694 24.4739 32.3682V18.9527H30.3701C30.8028 18.9527 31.2176 18.7807 31.5233 18.4746C31.829 18.1686 32.0005 17.7535 32 17.3209V3.63176C32.0005 3.19917 31.829 2.78412 31.5233 2.47805C31.2176 2.17198 30.8028 2 30.3701 2ZM1.89152 3.8934H15.0542V17.0553H1.89152V3.8934ZM22.5824 32.1086H9.41964V18.9527H22.5824V32.1086ZM30.1085 17.0553H16.9458V3.8934H30.1085V17.0553Z" fill="white"/>
<path d="M10.8341 12.6533C11.2069 13.0031 11.79 12.9938 12.1515 12.6324C12.5129 12.2709 12.5222 11.6878 12.1723 11.3151L9.15031 8.29325C8.77976 7.92618 8.18263 7.92618 7.81207 8.29325L4.78205 11.3151C4.53018 11.5514 4.42703 11.9062 4.5129 12.2407C4.59876 12.5753 4.86002 12.8365 5.19458 12.9224C5.52914 13.0082 5.88392 12.9051 6.12029 12.6533L8.4732 10.3005L10.8341 12.6533Z" fill="white"/>
<path d="M21.1742 12.6533L23.5271 10.3005L25.8801 12.6533C26.2528 13.0031 26.8359 12.9938 27.1974 12.6324C27.5589 12.2709 27.5681 11.6878 27.2183 11.3151L24.1963 8.29325C23.8257 7.92618 23.2286 7.92618 22.858 8.29325L19.836 11.3151C19.4862 11.6878 19.4954 12.2709 19.8569 12.6324C20.2184 12.9938 20.8015 13.0031 21.1742 12.6533Z" fill="white"/>
<path d="M13.646 23.3466C13.2727 22.9973 12.6896 23.0074 12.3287 23.3694C11.9677 23.7314 11.9594 24.3145 12.3098 24.6867L15.3318 27.7066C15.5091 27.8844 15.7498 27.9844 16.0009 27.9844C16.252 27.9844 16.4928 27.8844 16.67 27.7066L19.6921 24.6867C19.9315 24.4477 20.0252 24.0991 19.9379 23.7723C19.8505 23.4454 19.5955 23.19 19.2687 23.1022C18.942 23.0144 18.5932 23.1075 18.3538 23.3466L16.0009 25.7013L13.646 23.3466Z" fill="white"/>
<path d="M57.0469 17.082V23.8438C56.7812 24.1641 56.3711 24.5117 55.8164 24.8867C55.2617 25.2539 54.5469 25.5703 53.6719 25.8359C52.7969 26.1016 51.7383 26.2344 50.4961 26.2344C49.3945 26.2344 48.3906 26.0547 47.4844 25.6953C46.5781 25.3281 45.7969 24.793 45.1406 24.0898C44.4922 23.3867 43.9922 22.5273 43.6406 21.5117C43.2891 20.4883 43.1133 19.3203 43.1133 18.0078V16.9414C43.1133 15.6289 43.2812 14.4609 43.6172 13.4375C43.9609 12.4141 44.4492 11.5508 45.082 10.8477C45.7148 10.1445 46.4688 9.60938 47.3438 9.24219C48.2188 8.875 49.1914 8.69141 50.2617 8.69141C51.7461 8.69141 52.9648 8.93359 53.918 9.41797C54.8711 9.89453 55.5977 10.5586 56.0977 11.4102C56.6055 12.2539 56.918 13.2227 57.0352 14.3164H53.625C53.5391 13.7383 53.375 13.2344 53.1328 12.8047C52.8906 12.375 52.543 12.0391 52.0898 11.7969C51.6445 11.5547 51.0664 11.4336 50.3555 11.4336C49.7695 11.4336 49.2461 11.5547 48.7852 11.7969C48.332 12.0312 47.9492 12.3789 47.6367 12.8398C47.3242 13.3008 47.0859 13.8711 46.9219 14.5508C46.7578 15.2305 46.6758 16.0195 46.6758 16.918V18.0078C46.6758 18.8984 46.7617 19.6875 46.9336 20.375C47.1055 21.0547 47.3594 21.6289 47.6953 22.0977C48.0391 22.5586 48.4609 22.9062 48.9609 23.1406C49.4609 23.375 50.043 23.4922 50.707 23.4922C51.2617 23.4922 51.7227 23.4453 52.0898 23.3516C52.4648 23.2578 52.7656 23.1445 52.9922 23.0117C53.2266 22.8711 53.4062 22.7383 53.5312 22.6133V19.5898H50.3203V17.082H57.0469ZM61.4883 8.9375H64.4648L68.8477 21.4648L73.2305 8.9375H76.207L70.043 26H67.6523L61.4883 8.9375ZM59.8828 8.9375H62.8477L63.3867 21.1484V26H59.8828V8.9375ZM74.8477 8.9375H77.8242V26H74.3086V21.1484L74.8477 8.9375ZM90.7969 20.3398H94.3008C94.2305 21.4883 93.9141 22.5078 93.3516 23.3984C92.7969 24.2891 92.0195 24.9844 91.0195 25.4844C90.0273 25.9844 88.832 26.2344 87.4336 26.2344C86.3398 26.2344 85.3594 26.0469 84.4922 25.6719C83.625 25.2891 82.8828 24.7422 82.2656 24.0312C81.6562 23.3203 81.1914 22.4609 80.8711 21.4531C80.5508 20.4453 80.3906 19.3164 80.3906 18.0664V16.8828C80.3906 15.6328 80.5547 14.5039 80.8828 13.4961C81.2188 12.4805 81.6953 11.6172 82.3125 10.9062C82.9375 10.1953 83.6836 9.64844 84.5508 9.26562C85.418 8.88281 86.3867 8.69141 87.457 8.69141C88.8789 8.69141 90.0781 8.94922 91.0547 9.46484C92.0391 9.98047 92.8008 10.6914 93.3398 11.5977C93.8867 12.5039 94.2148 13.5352 94.3242 14.6914H90.8086C90.7695 14.0039 90.6328 13.4219 90.3984 12.9453C90.1641 12.4609 89.8086 12.0977 89.332 11.8555C88.8633 11.6055 88.2383 11.4805 87.457 11.4805C86.8711 11.4805 86.3594 11.5898 85.9219 11.8086C85.4844 12.0273 85.1172 12.3594 84.8203 12.8047C84.5234 13.25 84.3008 13.8125 84.1523 14.4922C84.0117 15.1641 83.9414 15.9531 83.9414 16.8594V18.0664C83.9414 18.9492 84.0078 19.7266 84.1406 20.3984C84.2734 21.0625 84.4766 21.625 84.75 22.0859C85.0312 22.5391 85.3906 22.8828 85.8281 23.1172C86.2734 23.3438 86.8086 23.457 87.4336 23.457C88.168 23.457 88.7734 23.3398 89.25 23.1055C89.7266 22.8711 90.0898 22.5234 90.3398 22.0625C90.5977 21.6016 90.75 21.0273 90.7969 20.3398ZM105.117 8.9375V29.1641H103.102V8.9375H105.117ZM119.848 26H116.133L116.156 23.2578H119.848C120.77 23.2578 121.547 23.0508 122.18 22.6367C122.812 22.2148 123.289 21.6016 123.609 20.7969C123.938 19.9922 124.102 19.0195 124.102 17.8789V17.0469C124.102 16.1719 124.008 15.4023 123.82 14.7383C123.641 14.0742 123.371 13.5156 123.012 13.0625C122.652 12.6094 122.211 12.2695 121.688 12.043C121.164 11.8086 120.562 11.6914 119.883 11.6914H116.062V8.9375H119.883C121.023 8.9375 122.066 9.13281 123.012 9.52344C123.965 9.90625 124.789 10.457 125.484 11.1758C126.18 11.8945 126.715 12.7539 127.09 13.7539C127.473 14.7461 127.664 15.8516 127.664 17.0703V17.8789C127.664 19.0898 127.473 20.1953 127.09 21.1953C126.715 22.1953 126.18 23.0547 125.484 23.7734C124.797 24.4844 123.973 25.0352 123.012 25.4258C122.059 25.8086 121.004 26 119.848 26ZM118.125 8.9375V26H114.609V8.9375H118.125ZM136.898 11.8555L132.258 26H128.52L134.859 8.9375H137.238L136.898 11.8555ZM140.754 26L136.102 11.8555L135.727 8.9375H138.129L144.504 26H140.754ZM140.543 19.6484V22.4023H131.531V19.6484H140.543ZM154.969 21.5352C154.969 21.2305 154.922 20.957 154.828 20.7148C154.742 20.4648 154.578 20.2383 154.336 20.0352C154.094 19.8242 153.754 19.6172 153.316 19.4141C152.879 19.2109 152.312 19 151.617 18.7812C150.844 18.5312 150.109 18.25 149.414 17.9375C148.727 17.625 148.117 17.2617 147.586 16.8477C147.062 16.4258 146.648 15.9375 146.344 15.3828C146.047 14.8281 145.898 14.1836 145.898 13.4492C145.898 12.7383 146.055 12.0938 146.367 11.5156C146.68 10.9297 147.117 10.4297 147.68 10.0156C148.242 9.59375 148.906 9.26953 149.672 9.04297C150.445 8.81641 151.293 8.70312 152.215 8.70312C153.473 8.70312 154.57 8.92969 155.508 9.38281C156.445 9.83594 157.172 10.457 157.688 11.2461C158.211 12.0352 158.473 12.9375 158.473 13.9531H154.98C154.98 13.4531 154.875 13.0156 154.664 12.6406C154.461 12.2578 154.148 11.957 153.727 11.7383C153.312 11.5195 152.789 11.4102 152.156 11.4102C151.547 11.4102 151.039 11.5039 150.633 11.6914C150.227 11.8711 149.922 12.1172 149.719 12.4297C149.516 12.7344 149.414 13.0781 149.414 13.4609C149.414 13.75 149.484 14.0117 149.625 14.2461C149.773 14.4805 149.992 14.6992 150.281 14.9023C150.57 15.1055 150.926 15.2969 151.348 15.4766C151.77 15.6562 152.258 15.832 152.812 16.0039C153.742 16.2852 154.559 16.6016 155.262 16.9531C155.973 17.3047 156.566 17.6992 157.043 18.1367C157.52 18.5742 157.879 19.0703 158.121 19.625C158.363 20.1797 158.484 20.8086 158.484 21.5117C158.484 22.2539 158.34 22.918 158.051 23.5039C157.762 24.0898 157.344 24.5859 156.797 24.9922C156.25 25.3984 155.598 25.707 154.84 25.918C154.082 26.1289 153.234 26.2344 152.297 26.2344C151.453 26.2344 150.621 26.125 149.801 25.9062C148.98 25.6797 148.234 25.3398 147.562 24.8867C146.898 24.4336 146.367 23.8555 145.969 23.1523C145.57 22.4492 145.371 21.6172 145.371 20.6562H148.898C148.898 21.1875 148.98 21.6367 149.145 22.0039C149.309 22.3711 149.539 22.668 149.836 22.8945C150.141 23.1211 150.5 23.2852 150.914 23.3867C151.336 23.4883 151.797 23.5391 152.297 23.5391C152.906 23.5391 153.406 23.4531 153.797 23.2812C154.195 23.1094 154.488 22.8711 154.676 22.5664C154.871 22.2617 154.969 21.918 154.969 21.5352ZM172.254 15.8867V18.6289H163.348V15.8867H172.254ZM164.391 8.9375V26H160.875V8.9375H164.391ZM174.762 8.9375V26H171.258V8.9375H174.762ZM184.5 18.5117H180.117L180.094 16.0977H183.773C184.422 16.0977 184.953 16.0156 185.367 15.8516C185.781 15.6797 186.09 15.4336 186.293 15.1133C186.504 14.7852 186.609 14.3867 186.609 13.918C186.609 13.3867 186.508 12.957 186.305 12.6289C186.109 12.3008 185.801 12.0625 185.379 11.9141C184.965 11.7656 184.43 11.6914 183.773 11.6914H181.336V26H177.82V8.9375H183.773C184.766 8.9375 185.652 9.03125 186.434 9.21875C187.223 9.40625 187.891 9.69141 188.438 10.0742C188.984 10.457 189.402 10.9414 189.691 11.5273C189.98 12.1055 190.125 12.793 190.125 13.5898C190.125 14.293 189.965 14.9414 189.645 15.5352C189.332 16.1289 188.836 16.6133 188.156 16.9883C187.484 17.3633 186.605 17.5703 185.52 17.6094L184.5 18.5117ZM184.348 26H179.156L180.527 23.2578H184.348C184.965 23.2578 185.469 23.1602 185.859 22.9648C186.25 22.7617 186.539 22.4883 186.727 22.1445C186.914 21.8008 187.008 21.4062 187.008 20.9609C187.008 20.4609 186.922 20.0273 186.75 19.6602C186.586 19.293 186.32 19.0117 185.953 18.8164C185.586 18.6133 185.102 18.5117 184.5 18.5117H181.113L181.137 16.0977H185.355L186.164 17.0469C187.203 17.0312 188.039 17.2148 188.672 17.5977C189.312 17.9727 189.777 18.4609 190.066 19.0625C190.363 19.6641 190.512 20.3086 190.512 20.9961C190.512 22.0898 190.273 23.0117 189.797 23.7617C189.32 24.5039 188.621 25.0625 187.699 25.4375C186.785 25.8125 185.668 26 184.348 26ZM207.164 17.0703V17.8789C207.164 19.1758 206.988 20.3398 206.637 21.3711C206.285 22.4023 205.789 23.2812 205.148 24.0078C204.508 24.7266 203.742 25.2773 202.852 25.6602C201.969 26.043 200.988 26.2344 199.91 26.2344C198.84 26.2344 197.859 26.043 196.969 25.6602C196.086 25.2773 195.32 24.7266 194.672 24.0078C194.023 23.2812 193.52 22.4023 193.16 21.3711C192.809 20.3398 192.633 19.1758 192.633 17.8789V17.0703C192.633 15.7656 192.809 14.6016 193.16 13.5781C193.512 12.5469 194.008 11.668 194.648 10.9414C195.297 10.2148 196.062 9.66016 196.945 9.27734C197.836 8.89453 198.816 8.70312 199.887 8.70312C200.965 8.70312 201.945 8.89453 202.828 9.27734C203.719 9.66016 204.484 10.2148 205.125 10.9414C205.773 11.668 206.273 12.5469 206.625 13.5781C206.984 14.6016 207.164 15.7656 207.164 17.0703ZM203.613 17.8789V17.0469C203.613 16.1406 203.531 15.3438 203.367 14.6562C203.203 13.9688 202.961 13.3906 202.641 12.9219C202.32 12.4531 201.93 12.1016 201.469 11.8672C201.008 11.625 200.48 11.5039 199.887 11.5039C199.293 11.5039 198.766 11.625 198.305 11.8672C197.852 12.1016 197.465 12.4531 197.145 12.9219C196.832 13.3906 196.594 13.9688 196.43 14.6562C196.266 15.3438 196.184 16.1406 196.184 17.0469V17.8789C196.184 18.7773 196.266 19.5742 196.43 20.2695C196.594 20.957 196.836 21.5391 197.156 22.0156C197.477 22.4844 197.867 22.8398 198.328 23.082C198.789 23.3242 199.316 23.4453 199.91 23.4453C200.504 23.4453 201.031 23.3242 201.492 23.082C201.953 22.8398 202.34 22.4844 202.652 22.0156C202.965 21.5391 203.203 20.957 203.367 20.2695C203.531 19.5742 203.613 18.7773 203.613 17.8789ZM216.375 11.8555L211.734 26H207.996L214.336 8.9375H216.715L216.375 11.8555ZM220.23 26L215.578 11.8555L215.203 8.9375H217.605L223.98 26H220.23ZM220.02 19.6484V22.4023H211.008V19.6484H220.02ZM225.562 8.9375H231.926C233.23 8.9375 234.352 9.13281 235.289 9.52344C236.234 9.91406 236.961 10.4922 237.469 11.2578C237.977 12.0234 238.23 12.9648 238.23 14.082C238.23 14.9961 238.074 15.7812 237.762 16.4375C237.457 17.0859 237.023 17.6289 236.461 18.0664C235.906 18.4961 235.254 18.8398 234.504 19.0977L233.391 19.6836H227.859L227.836 16.9414H231.949C232.566 16.9414 233.078 16.832 233.484 16.6133C233.891 16.3945 234.195 16.0898 234.398 15.6992C234.609 15.3086 234.715 14.8555 234.715 14.3398C234.715 13.793 234.613 13.3203 234.41 12.9219C234.207 12.5234 233.898 12.2188 233.484 12.0078C233.07 11.7969 232.551 11.6914 231.926 11.6914H229.078V26H225.562V8.9375ZM235.102 26L231.211 18.3945L234.926 18.3711L238.863 25.8359V26H235.102ZM246.176 26H242.461L242.484 23.2578H246.176C247.098 23.2578 247.875 23.0508 248.508 22.6367C249.141 22.2148 249.617 21.6016 249.938 20.7969C250.266 19.9922 250.43 19.0195 250.43 17.8789V17.0469C250.43 16.1719 250.336 15.4023 250.148 14.7383C249.969 14.0742 249.699 13.5156 249.34 13.0625C248.98 12.6094 248.539 12.2695 248.016 12.043C247.492 11.8086 246.891 11.6914 246.211 11.6914H242.391V8.9375H246.211C247.352 8.9375 248.395 9.13281 249.34 9.52344C250.293 9.90625 251.117 10.457 251.812 11.1758C252.508 11.8945 253.043 12.7539 253.418 13.7539C253.801 14.7461 253.992 15.8516 253.992 17.0703V17.8789C253.992 19.0898 253.801 20.1953 253.418 21.1953C253.043 22.1953 252.508 23.0547 251.812 23.7734C251.125 24.4844 250.301 25.0352 249.34 25.4258C248.387 25.8086 247.332 26 246.176 26ZM244.453 8.9375V26H240.938V8.9375H244.453Z" fill="white"/>
</svg>
