<svg width="36" height="35" viewBox="0 0 36 35" fill="none" xmlns="http://www.w3.org/2000/svg">
<rect width="35.3312" height="35" rx="12" fill="#00E1A5"/>
<path d="M17.6655 8.5C12.6497 8.5 8.58032 12.5312 8.58032 17.5C8.58032 22.4687 12.6497 26.5 17.6655 26.5C22.6813 26.5 26.7507 22.4687 26.7507 17.5C26.7507 12.5312 22.6813 8.5 17.6655 8.5ZM17.3816 22.75C17.1944 22.75 17.0114 22.695 16.8558 22.592C16.7002 22.489 16.5789 22.3426 16.5072 22.1713C16.4356 22 16.4169 21.8115 16.4534 21.6296C16.4899 21.4477 16.58 21.2807 16.7124 21.1496C16.8447 21.0185 17.0134 20.9292 17.197 20.893C17.3805 20.8568 17.5708 20.8754 17.7437 20.9464C17.9167 21.0173 18.0645 21.1375 18.1685 21.2916C18.2725 21.4458 18.328 21.6271 18.328 21.8125C18.328 22.0611 18.2282 22.2996 18.0508 22.4754C17.8733 22.6512 17.6326 22.75 17.3816 22.75V22.75ZM18.9639 17.9687C18.1969 18.4787 18.0914 18.9461 18.0914 19.375C18.0914 19.549 18.0216 19.716 17.8973 19.839C17.7731 19.9621 17.6046 20.0312 17.4289 20.0312C17.2532 20.0312 17.0847 19.9621 16.9605 19.839C16.8362 19.716 16.7664 19.549 16.7664 19.375C16.7664 18.348 17.2434 17.5314 18.2248 16.8784C19.1371 16.2719 19.6529 15.8875 19.6529 15.0423C19.6529 14.4677 19.3216 14.0312 18.636 13.7083C18.4746 13.6323 18.1155 13.5583 17.6735 13.5634C17.119 13.5705 16.6884 13.7017 16.3567 13.9661C15.7311 14.4648 15.6781 15.0077 15.6781 15.0156C15.6739 15.1018 15.6526 15.1863 15.6155 15.2644C15.5783 15.3424 15.526 15.4124 15.4615 15.4704C15.397 15.5284 15.3216 15.5732 15.2397 15.6024C15.1577 15.6315 15.0707 15.6444 14.9837 15.6402C14.8967 15.6361 14.8114 15.615 14.7326 15.5782C14.6539 15.5414 14.5832 15.4895 14.5246 15.4256C14.4661 15.3618 14.4208 15.2871 14.3914 15.2059C14.362 15.1247 14.349 15.0385 14.3532 14.9523C14.3584 14.8384 14.4384 13.8123 15.5253 12.9461C16.0888 12.497 16.8057 12.2636 17.6546 12.2533C18.2556 12.2462 18.8201 12.347 19.2029 12.5261C20.3485 13.0628 20.9778 13.9577 20.9778 15.0423C20.9778 16.6281 19.9079 17.3402 18.9639 17.9687Z" fill="white"/>
</svg>
