<svg width="221" height="170" viewBox="0 0 221 170" fill="none" xmlns="http://www.w3.org/2000/svg">
<rect width="220.063" height="169.5" rx="15" fill="white"/>
<mask id="mask0_3526_18" style="mask-type:alpha" maskUnits="userSpaceOnUse" x="0" y="0" width="221" height="170">
<rect width="220.063" height="169.5" rx="15" fill="#4FD1C5"/>
</mask>
<g mask="url(#mask0_3526_18)">
<g opacity="0.2">
<path d="M401.267 169.25C401.267 267.138 321.16 346.5 222.334 346.5C123.508 346.5 43.4022 267.138 43.4022 169.25C43.4022 71.362 123.508 -8 222.334 -8C321.16 -8 401.267 71.362 401.267 169.25Z" stroke="#00E1A5"/>
<path d="M377.008 169.25C377.008 253.866 307.763 322.469 222.335 322.469C136.906 322.469 67.6613 253.866 67.6613 169.25C67.6613 84.6342 136.906 16.0315 222.335 16.0315C307.763 16.0315 377.008 84.6342 377.008 169.25Z" stroke="#00E1A5"/>
<path d="M349.403 169.25C349.403 238.763 292.517 295.122 222.335 295.122C152.152 295.122 95.2662 238.763 95.2662 169.25C95.2662 99.737 152.152 43.3776 222.335 43.3776C292.517 43.3776 349.403 99.737 349.403 169.25Z" stroke="#00E1A5"/>
<path d="M321.798 169.25C321.798 223.66 277.271 267.776 222.335 267.776C167.398 267.776 122.871 223.66 122.871 169.25C122.871 114.84 167.398 70.7238 222.335 70.7238C277.271 70.7238 321.798 114.84 321.798 169.25Z" stroke="#00E1A5"/>
<path d="M295.029 169.25C295.029 209.015 262.487 241.259 222.334 241.259C182.182 241.259 149.64 209.015 149.64 169.25C149.64 129.485 182.182 97.2412 222.334 97.2412C262.487 97.2412 295.029 129.485 295.029 169.25Z" stroke="#00E1A5"/>
<path d="M270.771 169.25C270.771 195.743 249.089 217.227 222.334 217.227C195.58 217.227 173.898 195.743 173.898 169.25C173.898 142.757 195.58 121.273 222.334 121.273C249.089 121.273 270.771 142.757 270.771 169.25Z" stroke="#00E1A5"/>
<path d="M251.361 169.25C251.361 185.124 238.37 198 222.334 198C206.299 198 193.308 185.124 193.308 169.25C193.308 153.376 206.299 140.5 222.334 140.5C238.37 140.5 251.361 153.376 251.361 169.25Z" stroke="#00E1A5"/>
</g>
</g>
</svg>
